PathFileType	4	(X/Y/Z)	/Users/itak/Documents/Research/Walk-IL/dataset/trc/00443_00167.trc
DataRate	CameraRate	NumFrames	NumMarkers	Units	OrigDataRate	OrigDataStartFrame	OrigNumFrames
100.000000	100.000000	4	54	mm	100.000000	184	491
Frame#	Time	RPSI			LPSI			L3			STRN			T10			C7			CLAV			RBAK			LBAK			LSHO			LUPA			LAEL			LAOL			LWTS			LWPS			LFRA			LIFD			LHPS			RSHO			RUPA			RAEL			RAOL			RWTS			RWPS			RFRA			RIFD			RHTS			RHPS			RBHD			LFHD			RFHD			LBHD			LHIP			RHIP			RASI			LASI			LKNE			LTHI			LANK			LTIP			LTOE			LMT1			LMT5			LHEE			RKNE			RTHI			RANK			RTIP			RTOE			RMT1			RMT5			RHEE			LHTS			*53			
		X1	Y1	Z1	X2	Y2	Z2	X3	Y3	Z3	X4	Y4	Z4	X5	Y5	Z5	X6	Y6	Z6	X7	Y7	Z7	X8	Y8	Z8	X9	Y9	Z9	X10	Y10	Z10	X11	Y11	Z11	X12	Y12	Z12	X13	Y13	Z13	X14	Y14	Z14	X15	Y15	Z15	X16	Y16	Z16	X17	Y17	Z17	X18	Y18	Z18	X19	Y19	Z19	X20	Y20	Z20	X21	Y21	Z21	X22	Y22	Z22	X23	Y23	Z23	X24	Y24	Z24	X25	Y25	Z25	X26	Y26	Z26	X27	Y27	Z27	X28	Y28	Z28	X29	Y29	Z29	X30	Y30	Z30	X31	Y31	Z31	X32	Y32	Z32	X33	Y33	Z33	X34	Y34	Z34	X35	Y35	Z35	X36	Y36	Z36	X37	Y37	Z37	X38	Y38	Z38	X39	Y39	Z39	X40	Y40	Z40	X41	Y41	Z41	X42	Y42	Z42	X43	Y43	Z43	X44	Y44	Z44	X45	Y45	Z45	X46	Y46	Z46	X47	Y47	Z47	X48	Y48	Z48	X49	Y49	Z49	X50	Y50	Z50	X51	Y51	Z51	X52	Y52	Z52	X53	Y53	Z53	X54	Y54	Z54	

185	1.84	-966.11474609375	915.9884643554688	-338.2294006347656	-899.1464233398438	925.7412719726562	-461.8812866210938	-920.3719482421875	1025.268310546875	-386.2549133300781	-654.191162109375	1183.191040039062	-246.3083038330078	-914.9511108398438	1150.101806640625	-390.3284606933594	-836.93798828125	1405.458129882812	-319.0167846679688	-676.7488403320312	1301.139770507812	-252.4413604736328	-947.8027954101562	1287.4306640625	-282.2814025878906	-817.7617797851562	1370.203125	-426.7482604980469	-685.161865234375	1380.967163085938	-442.2012329101562	-650.592529296875	1268.763916015625	-544.544921875	-634.2786865234375	1050.340576171875	-580.0801391601562	-738.5303955078125	1047.854248046875	-577.0328369140625	-626.215087890625	834.6834716796875	-524.5940551757812	-629.2424926757812	830.3184814453125	-598.6500244140625	-623.622802734375	960.785400390625	-587.1810913085938	-649.3673706054688	668.8744506835938	-549.4219970703125	-637.7906494140625	749.2745361328125	-604.9024658203125	-860.0098266601562	1352.7978515625	-149.996337890625	-918.17138671875	1289.799926757812	-101.2062759399414	-978.1145629882812	1008.563110351562	-76.44596862792969	-1005.921447753906	1002.343566894531	-138.5152282714844	-901.6836547851562	792.6098022460938	-84.75833129882812	-988.6583862304688	788.9794311523438	-69.96459197998047	-988.8984985351562	950.5181274414062	-71.88011169433594	-928.56640625	635.8802490234375	-91.05225372314453	-910.4083251953125	691.9765625	-75.43970489501953	-985.7516479492188	700.3052978515625	-71.09915161132812	-826.2453002929688	1578.230102539062	-201.5933227539062	-628.3818969726562	1617.307373046875	-248.8383636474609	-704.9334106445312	1609.636840820312	-142.8777770996094	-735.8295288085938	1592.046508789062	-354.5680541992188	-738.6061401367188	815.9711303710938	-515.585693359375	-913.588134765625	824.7462768554688	-150.8381652832031	-797.6029052734375	868.9364624023438	-175.7905120849609	-677.56103515625	843.0164794921875	-401.9129333496094	-850.3405151367188	407.9707946777344	-509.1647033691406	-779.63916015625	550.8360595703125	-502.445068359375	-1046.966430664062	42.08386611938477	-587.6986083984375	-907.9840087890625	265.3884582519531	-541.2609252929688	-900.3074951171875	43.313232421875	-405.3094787597656	-976.4282836914062	52.42381286621094	-424.3124389648438	-914.187255859375	44.05694961547852	-520.1177978515625	-1119.831298828125	58.11861419677734	-577.9789428710938	-754.2489013671875	461.7175598144531	-83.61552429199219	-840.8385009765625	711.29052734375	-106.8071060180664	-631.021240234375	46.36149215698242	-1.705837249755859	-719.5347900390625	328.9281005859375	-39.02495956420898	-447.8548278808594	144.2035369873047	52.25676345825195	-479.0957641601562	118.8828659057617	-9.699883460998535	-535.669677734375	92.45905303955078	74.59021759033203	-663.3799438476562	22.86147308349609	-71.67858123779297	-623.9735717773438	743.50927734375	-534.97900390625	nan	nan	nan	
186	1.85	-959.5697021484375	914.552001953125	-332.1238098144531	-892.9146728515625	925.0822143554688	-455.915771484375	-913.6385498046875	1024.022827148438	-380.0692443847656	-646.8529663085938	1181.104248046875	-239.7526245117188	-907.7467041015625	1148.837890625	-383.6610107421875	-829.47021484375	1403.864868164062	-311.608154296875	-669.2199096679688	1299.127563476562	-245.4880676269531	-940.4271850585938	1285.854614257812	-275.3353881835938	-810.52685546875	1368.989624023438	-419.5222778320312	-678.0318603515625	1379.610961914062	-435.1112670898438	-643.8475341796875	1267.61279296875	-537.8173217773438	-627.6444091796875	1049.479125976562	-574.1676025390625	-731.879150390625	1046.83544921875	-570.705810546875	-618.9403076171875	833.751708984375	-519.2830810546875	-622.2968139648438	829.5779418945312	-593.3182373046875	-616.8628540039062	959.9683227539062	-581.5575561523438	-641.8425903320312	667.9701538085938	-544.5247192382812	-630.6802978515625	748.5675048828125	-599.8062133789062	-852.4990844726562	1350.667846679688	-142.7786560058594	-910.74267578125	1287.467651367188	-94.30136871337891	-971.1806640625	1006.373962402344	-70.78044891357422	-998.961181640625	1000.659057617188	-132.9279022216797	-896.3666381835938	789.82080078125	-80.26692962646484	-983.341552734375	786.9137573242188	-65.50511932373047	-982.34228515625	948.400146484375	-66.55819702148438	-924.8373413085938	633.3736572265625	-87.51436614990234	-906.0848388671875	689.183837890625	-71.59619903564453	-981.3148803710938	698.249755859375	-67.14236450195312	-819.2991333007812	1576.333984375	-194.6388549804688	-621.6082763671875	1616.015502929688	-241.8880920410156	-698.1649780273438	1608.307373046875	-135.9642028808594	-728.848388671875	1590.1328125	-347.6181030273438	-732.8555297851562	815.3765258789062	-510.6416931152344	-906.6676025390625	822.6464233398438	-145.1965026855469	-790.6700439453125	866.9488525390625	-170.1480255126953	-671.3310546875	841.59375	-396.896484375	-846.4182739257812	408.0703125	-506.9446105957031	-775.120361328125	550.5242919921875	-499.2666015625	-1046.40576171875	43.69341659545898	-587.8177490234375	-905.3639526367188	266.19580078125	-540.284423828125	-900.2002563476562	43.30151748657227	-405.331787109375	-975.9503173828125	52.86019515991211	-424.52734375	-913.7876586914062	43.87936401367188	-520.3065795898438	-1119.016357421875	61.11965179443359	-578.2346801757812	-746.57958984375	459.7593688964844	-78.89176940917969	-833.9903564453125	709.1334228515625	-101.1110076904297	-628.212890625	43.82822799682617	-0.9754594564437866	-712.7023315429688	326.2522583007812	-35.63847732543945	-444.0087280273438	137.8697052001953	56.27402496337891	-474.7991943359375	113.4478378295898	-6.4279465675354	-533.3390502929688	87.83060455322266	76.78804016113281	-660.1212768554688	21.51515007019043	-71.49732208251953	-616.519287109375	742.6210327148438	-529.9663696289062	nan	nan	nan	
187	1.86	-952.9429321289062	913.2501831054688	-325.6913757324219	-886.6500854492188	924.5792236328125	-449.6846313476562	-906.760986328125	1022.926452636719	-373.619140625	-639.3505859375	1179.141723632812	-232.9652404785156	-900.3367919921875	1147.705688476562	-376.7040405273438	-821.8184814453125	1402.414672851562	-303.9673156738281	-661.5169067382812	1297.233154296875	-238.2815704345703	-932.8858642578125	1284.417724609375	-268.1733093261719	-803.10595703125	1367.929565429688	-412.0653991699219	-670.717041015625	1378.394409179688	-427.7830505371094	-636.9578857421875	1266.6171875	-530.8751220703125	-620.9461059570312	1048.803588867188	-568.1587524414062	-725.1939697265625	1046.018798828125	-564.2252197265625	-611.5140991210938	833.0487060546875	-513.7640380859375	-615.2470703125	829.0146484375	-587.7744140625	-610.0162963867188	959.3258056640625	-575.7864379882812	-634.1026000976562	667.2809448242188	-539.2887573242188	-623.4638061523438	748.022705078125	-594.4208374023438	-844.8472290039062	1348.668701171875	-135.3318481445312	-903.1895751953125	1285.256225585938	-87.20606231689453	-964.1683959960938	1004.304504394531	-64.96450042724609	-991.9072875976562	999.0726318359375	-127.1781311035156	-890.7714233398438	787.2509155273438	-75.64292907714844	-977.7238159179688	784.9759521484375	-60.88439559936523	-975.6563720703125	946.3942260742188	-61.0811767578125	-920.6416015625	631.072998046875	-83.81287384033203	-901.3717041015625	686.6215209960938	-67.59503936767578	-976.485595703125	696.333251953125	-63.0118522644043	-812.2352294921875	1574.557739257812	-187.4599761962891	-614.7547607421875	1614.906982421875	-234.7182006835938	-691.2963256835938	1607.137084960938	-128.8306274414062	-721.7481079101562	1588.357177734375	-340.4376220703125	-727.0829467773438	814.9619750976562	-505.5485534667969	-899.454833984375	820.669677734375	-139.2755432128906	-783.515625	865.0797729492188	-164.3512573242188	-665.006103515625	840.3278198242188	-391.7875061035156	-842.341064453125	408.3363952636719	-504.6764831542969	-770.4576416015625	550.3954467773438	-496.0374755859375	-1045.683471679688	45.50432586669922	-587.9826049804688	-902.5996704101562	267.2019958496094	-539.2930297851562	-900.0624389648438	43.28986740112305	-405.3626708984375	-975.4208374023438	53.36055755615234	-424.7600402832031	-913.3276977539062	43.71031951904297	-520.4844970703125	-1118.012451171875	64.41790771484375	-578.5458984375	-738.5092163085938	458.0171508789062	-73.96273040771484	-826.8276977539062	707.0856323242188	-95.1219482421875	-626.0582885742188	41.59408950805664	-0.528645932674408	-705.5576171875	323.7500915527344	-32.19323348999023	-440.2095642089844	130.3804626464844	59.71323394775391	-470.7573852539062	107.1452789306641	-3.718326568603516	-531.2139282226562	82.63569641113281	78.49134826660156	-657.7864990234375	20.81904220581055	-71.57347106933594	-608.8822631835938	741.9609375	-524.6956787109375	nan	nan	nan	
188	1.87	-946.2286376953125	912.1325073242188	-318.9588623046875	-880.3439331054688	924.2294311523438	-443.2134094238281	-899.7317504882812	1022.021484375	-366.9107055664062	-631.68408203125	1177.331787109375	-225.9515686035156	-892.7350463867188	1146.752807617188	-369.4560546875	-813.9752807617188	1401.144897460938	-296.0938415527344	-653.6370849609375	1295.4873046875	-230.8262329101562	-925.1741333007812	1283.160766601562	-260.7838745117188	-795.498291015625	1367.057006835938	-404.3733825683594	-663.2088012695312	1377.347290039062	-420.214599609375	-629.9229736328125	1265.80078125	-523.7138061523438	-614.167236328125	1048.339965820312	-562.0408325195312	-718.468017578125	1045.431762695312	-557.5865478515625	-603.9454345703125	832.5968627929688	-508.0352172851562	-608.095947265625	828.6510009765625	-582.0192260742188	-603.0820922851562	958.880859375	-569.85986328125	-626.1632080078125	666.826904296875	-533.7166137695312	-616.1417236328125	747.6636962890625	-588.7484130859375	-837.0396728515625	1346.826782226562	-127.6486511230469	-895.49951171875	1283.196044921875	-79.90713500976562	-957.0713500976562	1002.380493164062	-58.99413299560547	-984.75048828125	997.6138305664062	-121.2652053833008	-884.88427734375	784.9288330078125	-70.87845611572266	-971.8054809570312	783.1905517578125	-56.10429763793945	-968.837158203125	944.5247802734375	-55.44487762451172	-915.9564819335938	628.9990844726562	-79.94240570068359	-896.2532958984375	684.315185546875	-63.4237060546875	-971.2553100585938	694.5765380859375	-58.70820617675781	-805.0593872070312	1572.930053710938	-180.0556793212891	-607.8220825195312	1614.010131835938	-227.3187561035156	-684.3330078125	1606.158081054688	-121.4666213989258	-714.5319213867188	1586.743896484375	-333.0221252441406	-721.2808837890625	814.7160034179688	-500.2974243164062	-891.9502563476562	818.8993530273438	-133.0684967041016	-776.1466674804688	863.3900756835938	-158.4246215820312	-658.5829467773438	839.231689453125	-386.5798034667969	-838.0775756835938	408.7502136230469	-502.3258972167969	-765.5872192382812	550.4293212890625	-492.7134399414062	-1044.789306640625	47.53225708007812	-588.1980590820312	-899.6650390625	268.3866882324219	-538.260009765625	-899.8927001953125	43.27695846557617	-405.4027404785156	-974.83544921875	53.92165756225586	-425.0065307617188	-912.8165893554688	43.54947280883789	-520.6463623046875	-1116.802612304688	68.04151153564453	-578.9117431640625	-730.0555419921875	456.5594787597656	-68.82913208007812	-819.3776245117188	705.2077026367188	-88.82421112060547	-624.2938232421875	39.84066772460938	-0.2423422783613205	-698.0526733398438	321.5591125488281	-28.63003540039062	-436.2562866210938	121.978157043457	62.61603546142578	-466.8016052246094	100.2348403930664	-1.50450587272644	-529.0388793945312	77.11661529541016	79.81534576416016	-656.098388671875	20.87773704528809	-71.76268768310547	-601.0762939453125	741.5511474609375	-519.1598510742188	nan	nan	nan	
